name E:\Dropbox\SEL\BOX\Experiment\240124_SUB1_PJH\c3d\XYZ\UpDown_TrcMot\15_10_trial1_D1_ExtLoadAPP2.mot
datacolumns 37
datarows 5
range 9.353 9.357
endheader

time	    ground_force1_vx	    ground_force1_vy	    ground_force1_vz	    ground_force1_px	    ground_force1_py	    ground_force1_pz	    ground_torque1_x	    ground_torque1_y	    ground_torque1_z	    ground_force2_vx	    ground_force2_vy	    ground_force2_vz	    ground_force2_px	    ground_force2_py	    ground_force2_pz	    ground_torque2_x	    ground_torque2_y	    ground_torque2_z	      hand_force3_vx	      hand_force3_vy	      hand_force3_vz	      hand_force3_px	      hand_force3_py	      hand_force3_pz	      hand_torque3_x	      hand_torque3_y	      hand_torque3_z	      hand_force4_vx	      hand_force4_vy	      hand_force4_vz	      hand_force4_px	      hand_force4_py	      hand_force4_pz	      hand_torque4_x	      hand_torque4_y	      hand_torque4_z	
9.353	         52.83955227	        470.60745196	        -11.40043899	          0.22291799	          0.00000000	          0.27553772	          0.00000000	         -6.62826634	          0.00000000	        -45.77331049	        455.50804037	        -18.12951406	          0.57939189	          0.00000000	          0.25792572	          0.00000000	          3.35521359	          0.00000000	          0.00000000	          0.00000000	          0.00000000	          0.00000000	          0.00000000	          0.00000000	          0.00000000	          0.00000000	          0.00000000	          0.00000000	          0.00000000	          0.00000000	          0.00000000	          0.00000000	          0.00000000	          0.00000000	          0.00000000	          0.00000000	
9.354	         52.90710872	        471.09060638	        -11.28189843	          0.22289422	          0.00000000	          0.27542767	          0.00000000	         -6.63987557	          0.00000000	        -45.82924292	        455.95996235	        -18.24332019	          0.57940362	          0.00000000	          0.25790265	          0.00000000	          3.36269998	          0.00000000	          0.00000000	          0.00000000	          0.00000000	          0.00000000	          0.00000000	          0.00000000	          0.00000000	          0.00000000	          0.00000000	          0.00000000	          0.00000000	          0.00000000	          0.00000000	          0.00000000	          0.00000000	          0.00000000	          0.00000000	          0.00000000	
9.355	         52.97426904	        471.57787485	        -11.16069788	          0.22287051	          0.00000000	          0.27531651	          0.00000000	         -6.65155309	          0.00000000	        -45.88535255	        456.42268993	        -18.35272883	          0.57941506	          0.00000000	          0.25787941	          0.00000000	          3.37010691	          0.00000000	          0.00000000	          0.00000000	          0.00000000	          0.00000000	          0.00000000	          0.00000000	          0.00000000	          0.00000000	          0.00000000	          0.00000000	          0.00000000	          0.00000000	          0.00000000	          0.00000000	          0.00000000	          0.00000000	          0.00000000	          0.00000000	
9.356	         53.04099790	        472.06902607	        -11.03705466	          0.22284687	          0.00000000	          0.27520428	          0.00000000	         -6.66328804	          0.00000000	        -45.94153795	        456.89591360	        -18.45769395	          0.57942620	          0.00000000	          0.25785595	          0.00000000	          3.37743504	          0.00000000	          0.00000000	          0.00000000	          0.00000000	          0.00000000	          0.00000000	          0.00000000	          0.00000000	          0.00000000	          0.00000000	          0.00000000	          0.00000000	          0.00000000	          0.00000000	          0.00000000	          0.00000000	          0.00000000	          0.00000000	          0.00000000	
9.357	         53.10725161	        472.56378221	        -10.91119830	          0.22282330	          0.00000000	          0.27509102	          0.00000000	         -6.67506940	          0.00000000	        -45.99770062	        457.37930842	        -18.55818120	          0.57943704	          0.00000000	          0.25783220	          0.00000000	          3.38468492	          0.00000000	          0.00000000	          0.00000000	          0.00000000	          0.00000000	          0.00000000	          0.00000000	          0.00000000	          0.00000000	          0.00000000	          0.00000000	          0.00000000	          0.00000000	          0.00000000	          0.00000000	          0.00000000	          0.00000000	          0.00000000	          0.00000000	
